<svg xmlns="http://www.w3.org/2000/svg" viewBox="0 0 429.25 81.27"><title>grouptwo logo-white</title><g id="Layer_2" data-name="Layer 2"><g id="Layer_1-2" data-name="Layer 1"><path d="M43.6,38v-.2c0-10.32-9-17-18.49-17S7.69,27.35,7.69,37.66v.2C7.69,48,15.77,55,25.11,55c9.54,0,18.49-6.91,18.49-17M2.34,74.26l3.4-5.84a32.18,32.18,0,0,0,19.37,6.42c11.1,0,18.3-6.13,18.3-17.9V51C39,56.84,32.9,61.6,23.65,61.6,11.58,61.6,0,52.56,0,38.05v-.19c0-14.7,11.68-23.75,23.65-23.75,9.44,0,15.57,4.67,19.66,10.12v-9H50.8V56.74c0,7.78-2.33,13.72-6.42,17.81C39.9,79,33.19,81.27,25.21,81.27a39.45,39.45,0,0,1-22.87-7" style="fill:#fff"/><path d="M61.71,15.18h7.5V28.32c3.69-8.37,11-14.4,20.53-14v8.07h-.58c-11,0-20,7.89-20,23.07v20h-7.5Z" style="fill:#fff"/><path d="M134.81,40.58v-.19c0-10.8-8.08-19.66-18.69-19.66-10.9,0-18.39,8.86-18.39,19.47v.19c0,10.8,8,19.56,18.58,19.56,10.91,0,18.5-8.76,18.5-19.37M90,40.58v-.19a26.23,26.23,0,0,1,52.46-.19v.19a26.13,26.13,0,0,1-26.38,26.28A25.78,25.78,0,0,1,90,40.58" style="fill:#fff"/><path d="M149.41,46.42V15.18h7.5V44.57c0,9.35,5.06,15.19,13.91,15.19,8.57,0,15.09-6.33,15.09-15.77V15.18h7.4V65.5h-7.4V56.74c-3.41,5.45-8.56,9.83-17.23,9.83-12.16,0-19.27-8.18-19.27-20.15" style="fill:#fff"/><path d="M245.48,40.49v-.2c0-11.87-8.17-19.46-17.71-19.46-9.34,0-18.2,7.88-18.2,19.37v.19c0,11.68,8.86,19.46,18.2,19.46,9.73,0,17.71-7.2,17.71-19.36M202.37,15.18h7.49V25.3c4.09-6,10-11.19,19.27-11.19,12.07,0,24,9.54,24,26.09v.19c0,16.45-11.87,26.18-24,26.18-9.34,0-15.38-5.06-19.27-10.7v25.2h-7.49Z" style="fill:#fff"/><path d="M263.79,50.71V26h-6.23V13.33h6.23V0h14.79V13.33h12.26V26H278.58V48.27c0,3.41,1.46,5.06,4.77,5.06a15,15,0,0,0,7.3-1.85V63.36a21.83,21.83,0,0,1-11.68,3c-9.05,0-15.18-3.6-15.18-15.66" style="fill:#fff"/><polygon points="295.52 13.33 310.51 13.33 318.88 44.97 328.71 13.14 341.46 13.14 351.38 45.06 359.95 13.33 374.64 13.33 358.39 65.89 345.06 65.89 335.03 33.87 324.81 65.89 311.58 65.89 295.52 13.33" style="fill:#fff"/><path d="M414.65,39.71v-.2c0-7.68-5.54-14.4-13.72-14.4-8.46,0-13.53,6.52-13.53,14.21v.19c0,7.69,5.55,14.41,13.73,14.41,8.46,0,13.52-6.52,13.52-14.21m-41.84,0v-.2c0-15,12.06-27.15,28.32-27.15s28.12,12,28.12,27v.19c0,15-12.06,27.16-28.32,27.16s-28.12-12-28.12-27" style="fill:#fff"/></g></g></svg>